<?xml version="1.0" encoding="utf-8"?>
<!-- Generator: Adobe Illustrator 16.0.0, SVG Export Plug-In . SVG Version: 6.00 Build 0)  -->
<!DOCTYPE svg PUBLIC "-//W3C//DTD SVG 1.1//EN" "http://www.w3.org/Graphics/SVG/1.1/DTD/svg11.dtd">
<svg version="1.1" id="Layer_1" xmlns="http://www.w3.org/2000/svg" xmlns:xlink="http://www.w3.org/1999/xlink" x="0px" y="0px"
	 width="612px" height="792px" viewBox="0 0 612 792" enable-background="new 0 0 612 792" xml:space="preserve">
<path fill="#FFFFFF" stroke="#000000" stroke-miterlimit="10" d="M75.327,116.979c18.75,0,13.75-71.25,21.25-71.25
	s3.75,98.75,23.75,97.5s15-26.312,26.25-26.312"/>
<path fill="none" stroke="#000000" stroke-miterlimit="10" d="M165.163,116.916c13.125,0,9.334,30.932,18.084,30.182
	s6.25-25.75,12.5-25.75s1.25,10.764,8.75,9.757s3.75-34.757,11.25-34.757s6.25,20.949,15,20.568"/>
<line fill="none" stroke="#000000" stroke-miterlimit="10" x1="9.331" y1="116.916" x2="595.581" y2="116.916"/>
<path fill="none" stroke="#000000" stroke-miterlimit="10" d="M230.747,116.916c4.666-4.666,7.717-8.59,10.385-3.256
	c2.666,5.334,5.332,3.333,8,0c2.666-3.333,6.666,6,9.333,9.334c2.667,3.333,5.333-3.088,10-6.545c4.667-3.455,7.333,0.467,10,0.467"
	/>
<path fill="none" stroke="#000000" stroke-miterlimit="10" d="M326.315,116.916c-4.668-4.666-7.719-8.59-10.385-3.256
	s-5.333,3.333-8,0s-6.667,6-9.334,9.334c-2.666,3.333-5.333-3.088-10-6.545c-4.666-3.455-7.333,0.467-10,0.467"/>
<path fill="none" stroke="#000000" stroke-miterlimit="10" d="M327.878,116.73c15.471,0,11.344-64.125,17.533-64.125
	s2.584,82.187,19.086,81.062s12.889-16.994,22.172-16.994"/>
<path fill="none" stroke="#000000" stroke-miterlimit="10" d="M386.708,116.909c4.666,4.667,7.787,12.351,10.455,7.017
	s5.262-7.094,7.93-3.761s6.668-6,9.334-9.333c2.666-3.334,5.334,3.088,10,6.543c4.666,3.457,7.334-0.466,10-0.466"/>
<path fill="none" stroke="#000000" stroke-miterlimit="10" d="M433.429,116.821c11.811,0,8.398-27.839,16.273-27.164
	s5.625,23.175,11.25,23.175s1.125-9.686,7.875-8.78s3.375,31.28,10.125,31.28s5.625-18.854,13.5-18.511"/>
<path fill="none" stroke="#000000" stroke-miterlimit="10" d="M490.89,117.229c20.625,0,15.125-78.375,23.375-78.375
	s4.125,108.625,26.125,107.25s16.5-28.943,28.875-28.943"/>
<rect x="92.941" y="42.062" fill="#00A7E6" stroke="#000000" stroke-miterlimit="10" width="7.271" height="7.333"/>
<rect x="179.611" y="143.432" fill="#E30087" stroke="#000000" stroke-miterlimit="10" width="7.271" height="7.334"/>
<line fill="#E30087" stroke="#000000" stroke-miterlimit="10" x1="183.247" y1="89.818" x2="231.247" y2="89.818"/>
<line fill="#E30087" stroke="#000000" stroke-miterlimit="10" x1="183.247" y1="100.484" x2="183.247" y2="76.484"/>
<line fill="#E30087" stroke="#000000" stroke-miterlimit="10" x1="231.247" y1="99.818" x2="231.247" y2="75.818"/>
<rect x="341.776" y="48.938" fill="#00A7E6" stroke="#000000" stroke-miterlimit="10" width="7.27" height="7.334"/>
<rect x="257.528" y="120.259" fill="#E30087" stroke="#000000" stroke-miterlimit="10" width="7.271" height="7.333"/>
<rect x="446.065" y="85.99" fill="#E30087" stroke="#000000" stroke-miterlimit="10" width="7.273" height="7.334"/>
<rect x="510.628" y="35.188" fill="#00A7E6" stroke="#000000" stroke-miterlimit="10" width="7.273" height="7.333"/>
<rect x="391.526" y="123.926" fill="#E30087" stroke="#000000" stroke-miterlimit="10" width="7.273" height="7.334"/>
<ellipse fill="#00AEEF" stroke="#000000" stroke-width="2" stroke-miterlimit="10" cx="96.578" cy="191.429" rx="12.792" ry="12.5"/>
<ellipse fill="#EC008C" stroke="#000000" stroke-width="2" stroke-miterlimit="10" cx="183.248" cy="191.429" rx="12.792" ry="12.5"/>
<ellipse fill="#EC008C" stroke="#000000" stroke-width="2" stroke-miterlimit="10" cx="261.164" cy="191.429" rx="12.792" ry="12.5"/>
<ellipse fill="#00AEEF" stroke="#000000" stroke-width="2" stroke-miterlimit="10" cx="345.411" cy="191.429" rx="12.791" ry="12.5"/>
<ellipse fill="#EC008C" stroke="#000000" stroke-width="2" stroke-miterlimit="10" cx="395.164" cy="191.429" rx="12.792" ry="12.5"/>
<ellipse fill="#EC008C" stroke="#000000" stroke-width="2" stroke-miterlimit="10" cx="449.703" cy="191.429" rx="12.792" ry="12.5"/>
<ellipse fill="#00AEEF" stroke="#000000" stroke-width="2" stroke-miterlimit="10" cx="514.266" cy="191.429" rx="12.792" ry="12.5"/>
<line fill="none" stroke="#000000" stroke-miterlimit="10" x1="170.456" y1="191.429" x2="109.369" y2="191.429"/>
<line fill="none" stroke="#EC008C" stroke-width="5" stroke-miterlimit="10" x1="196.039" y1="191.429" x2="248.372" y2="191.429"/>
<line fill="none" stroke="#000000" stroke-miterlimit="10" x1="273.955" y1="191.429" x2="332.62" y2="191.429"/>
<line fill="none" stroke="#000000" stroke-miterlimit="10" x1="358.202" y1="191.429" x2="382.372" y2="191.429"/>
<line fill="none" stroke="#EC008C" stroke-width="5" stroke-miterlimit="10" x1="407.956" y1="191.429" x2="436.911" y2="191.429"/>
<line fill="none" stroke="#000000" stroke-miterlimit="10" x1="462.495" y1="191.429" x2="501.474" y2="191.429"/>
<path fill="none" stroke="#000000" stroke-miterlimit="10" d="M105.319,200.551c17.178,17.783,132.964,20.414,149.287,1.611"/>
<path fill="none" stroke="#000000" stroke-miterlimit="10" d="M192.488,200.551c17.177,26.704,132.964,30.655,149.288,2.42"/>
<path fill="none" stroke="#EC008C" stroke-width="5" stroke-miterlimit="10" d="M269.101,200.551
	c13.864,17.783,107.316,20.414,120.492,1.611"/>
<path fill="none" stroke="#000000" stroke-miterlimit="10" d="M350.321,202.205c10.939,24.752,84.67,28.414,95.064,2.243"/>
<path fill="none" stroke="#000000" stroke-miterlimit="10" d="M402.171,202.205c12.344,17.783,95.543,20.414,107.273,1.611"/>
<path fill="none" stroke="#00AEEF" stroke-width="5" stroke-miterlimit="10" d="M105.319,182.308
	c84.51-29.308,186.22-20.026,231.365,0"/>
<path fill="none" stroke="#EC008C" stroke-width="5" stroke-miterlimit="10" d="M192.488,182.791
	c43.938-18.962,139.534-29.224,193.435,0"/>
<path fill="none" stroke="#EC008C" stroke-width="5" stroke-miterlimit="10" d="M269.905,182.308
	c43.926-21.308,126.188-24.026,171.055,0"/>
<path fill="none" stroke="#00AEEF" stroke-width="5" stroke-miterlimit="10" d="M354.153,182.308
	c47.01-24.641,110.428-22.026,151.385,0"/>
<line fill="none" stroke="#000000" stroke-miterlimit="10" x1="96.577" y1="17.667" x2="367.163" y2="17.667"/>
<line fill="#E30087" stroke="#000000" stroke-miterlimit="10" x1="97.213" y1="29" x2="97.213" y2="5"/>
<line fill="#E30087" stroke="#000000" stroke-miterlimit="10" x1="366.776" y1="29.334" x2="366.776" y2="5.334"/>
<text transform="matrix(1 0 0 1 154.5771 72.4844)" font-family="'MyriadPro-Regular'" font-size="28">blackout</text>
<text transform="matrix(1 0 0 1 129.9131 42.0625)" font-family="'MyriadPro-Regular'" font-size="28">correlation length</text>
</svg>
